<svg width="240" height="100" viewBox="0 0 240 100" xmlns="http://www.w3.org/2000/svg">
  <!-- Interface Dots Logo - Most Detailed Version -->
  <defs>
    <radialGradient id="materialGrad" cx="50%" cy="50%">
      <stop offset="0%" style="stop-color:#0066CC;stop-opacity:1" />
      <stop offset="100%" style="stop-color:#003366;stop-opacity:1" />
    </radialGradient>
    <radialGradient id="interfaceGlow" cx="50%" cy="50%">
      <stop offset="0%" style="stop-color:#00CCCC;stop-opacity:0.4" />
      <stop offset="50%" style="stop-color:#0066CC;stop-opacity:0.2" />
      <stop offset="100%" style="stop-color:#003366;stop-opacity:0" />
    </radialGradient>
  </defs>
  
  <!-- Background field lines (electromagnetic field visualization) -->
  <path d="M 20 50 Q 60 30, 100 50 T 180 50" stroke="#0066CC" stroke-width="0.5" opacity="0.2" fill="none"/>
  <path d="M 20 50 Q 60 70, 100 50 T 180 50" stroke="#0066CC" stroke-width="0.5" opacity="0.2" fill="none"/>
  
  <!-- Left: BIOMATERIAL (Nanodiamond structure hint) -->
  <circle cx="40" cy="50" r="18" fill="url(#materialGrad)"/>
  <!-- Crystal lattice structure -->
  <line x1="32" y1="50" x2="48" y2="50" stroke="#00CCCC" stroke-width="2" opacity="0.5"/>
  <line x1="40" y1="42" x2="40" y2="58" stroke="#00CCCC" stroke-width="2" opacity="0.5"/>
  <line x1="35" y1="45" x2="45" y2="55" stroke="#00CCCC" stroke-width="1.5" opacity="0.4"/>
  <line x1="35" y1="55" x2="45" y2="45" stroke="#00CCCC" stroke-width="1.5" opacity="0.4"/>
  <!-- Small atoms at vertices -->
  <circle cx="40" cy="50" r="3" fill="#FFFFFF"/>
  
  <!-- Interface glow zone (electromagnetic interaction) -->
  <circle cx="120" cy="50" r="45" fill="url(#interfaceGlow)"/>
  
  <!-- Center: INTERFACE ZONE (Molecular bonds) -->
  <circle cx="120" cy="50" r="30" fill="#003366"/>
  <!-- Orbital rings -->
  <circle cx="120" cy="50" r="22" fill="none" stroke="#0066CC" stroke-width="1.5" opacity="0.4"/>
  <circle cx="120" cy="50" r="12" fill="none" stroke="#00CCCC" stroke-width="2" opacity="0.7"/>
  <!-- Core -->
  <circle cx="120" cy="50" r="5" fill="#00CCCC"/>
  <!-- Electron dots -->
  <circle cx="120" cy="28" r="2" fill="#FFFFFF"/>
  <circle cx="142" cy="50" r="2" fill="#FFFFFF"/>
  <circle cx="120" cy="72" r="2" fill="#FFFFFF"/>
  <circle cx="98" cy="50" r="2" fill="#FFFFFF"/>
  
  <!-- Connection bonds (chemical interaction) -->
  <line x1="58" y1="50" x2="90" y2="50" stroke="#0066CC" stroke-width="2.5" stroke-dasharray="4,3" opacity="0.6"/>
  <line x1="150" y1="50" x2="182" y2="50" stroke="#0066CC" stroke-width="2.5" stroke-dasharray="4,3" opacity="0.6"/>
  <!-- Small interaction indicators -->
  <circle cx="74" cy="50" r="2" fill="#0066CC" opacity="0.6"/>
  <circle cx="166" cy="50" r="2" fill="#0066CC" opacity="0.6"/>
  
  <!-- Right: MICROORGANISM (Bacterial cell) -->
  <circle cx="200" cy="50" r="18" fill="url(#materialGrad)"/>
  <!-- Cell membrane (double layer) -->
  <circle cx="200" cy="50" r="14" fill="none" stroke="#00CCCC" stroke-width="1.5" opacity="0.8"/>
  <circle cx="200" cy="50" r="10" fill="none" stroke="#00CCCC" stroke-width="1" opacity="0.5"/>
  <!-- DNA/genetic material inside -->
  <path d="M 195 47 Q 197 45, 200 47 T 205 47" stroke="#FFFFFF" stroke-width="1" fill="none" opacity="0.6"/>
  <path d="M 195 53 Q 197 55, 200 53 T 205 53" stroke="#FFFFFF" stroke-width="1" fill="none" opacity="0.6"/>
  <!-- Flagellum (bacterial tail) -->
  <path d="M 218 50 Q 223 44, 227 50 T 234 50" stroke="#003366" stroke-width="2" fill="none" opacity="0.6"/>
  <path d="M 218 50 Q 223 56, 227 50" stroke="#003366" stroke-width="2" fill="none" opacity="0.4"/>
</svg>
